<?xml version="1.0" encoding="utf-8"?>
<!-- Generator: Adobe Illustrator 24.2.0, SVG Export Plug-In . SVG Version: 6.00 Build 0)  -->
<svg version="1.1" id="Layer_1" xmlns="http://www.w3.org/2000/svg" xmlns:xlink="http://www.w3.org/1999/xlink" x="0px" y="0px"
	 viewBox="0 0 108 108" style="enable-background:new 0 0 108 108;" xml:space="preserve">
<style type="text/css">
	.st0{fill-rule:evenodd;clip-rule:evenodd;fill:#FFFFFF;}
</style>
<g>
	<path class="st0" d="M18.8,97.9c-0.2-0.8-0.3-1.7-0.5-2.5c0.2-0.2,0.4-0.4,0.5-0.4c8.3-1.5,11.3-5.1,11.3-14c0-19.4,0-38.8,0-58.2
		c0-1.1,0-2.2,0-3.5c1.4,0,2.7,0,4.3,0c0,1,0,1.9,0,2.9c0,19.5,0,39,0,58.5c0,2-0.2,4-0.5,5.9C32.4,95.2,27.7,98.7,18.8,97.9z"/>
	<path class="st0" d="M89.6,72.9c0,1.2,0,2.1,0,3.2c-10.5,0-21,0-31.8,0c0-18.8,0-37.7,0-56.8c1.2,0,2.5,0,4.1,0c0,1.1,0,2.2,0,3.2
		c0,15.5,0,31,0,46.5c0,3.5,0.3,3.8,3.9,3.8C73.7,72.9,81.5,72.9,89.6,72.9z"/>
	<path class="st0" d="M48.2,76.2c-1.4,0-2.6,0-4,0c0-19,0-37.9,0-57c1.4,0,2.6,0,4,0C48.2,38.2,48.2,57,48.2,76.2z"/>
	<path class="st0" d="M89.6,60.7c0,1.2,0,2.1,0,3.1c-6,0-12,0-18.1,0c0-14.8,0-29.5,0-44.5c1.2,0,2.5,0,4.1,0c0,1,0,2,0,2.9
		c0,11.5,0,23.1,0,34.6c0,3.2,0.6,3.8,3.7,3.8C82.7,60.7,86.1,60.7,89.6,60.7z"/>
</g>
</svg>
