<?xml version="1.0" encoding="utf-8"?>
<!-- Generator: Adobe Illustrator 16.0.3, SVG Export Plug-In . SVG Version: 6.00 Build 0)  -->
<!DOCTYPE svg PUBLIC "-//W3C//DTD SVG 1.1//EN" "http://www.w3.org/Graphics/SVG/1.1/DTD/svg11.dtd">
<svg version="1.1" id="Layer_1" xmlns="http://www.w3.org/2000/svg" xmlns:xlink="http://www.w3.org/1999/xlink" x="0px" y="0px"
	 width="108px" height="108px" viewBox="0 0 108 108" enable-background="new 0 0 108 108" xml:space="preserve">
<g>
	<path fill-rule="evenodd" clip-rule="evenodd" d="M18.821,97.881c-0.159-0.829-0.322-1.69-0.474-2.486
		c0.241-0.203,0.362-0.39,0.512-0.417c8.275-1.453,11.272-5.067,11.294-14.003c0.049-19.396,0.016-38.792,0.017-58.188
		c0-1.075,0-2.151,0-3.462c1.431,0,2.702,0,4.326,0c0,0.979,0,1.941,0,2.905c0,19.486,0.015,38.972-0.021,58.458
		c-0.004,1.972-0.163,3.971-0.505,5.911C32.442,95.236,27.714,98.747,18.821,97.881z"/>
	<path fill-rule="evenodd" clip-rule="evenodd" d="M89.627,72.881c0,1.241,0,2.12,0,3.213c-10.549,0-21.039,0-31.774,0
		c0-18.818,0-37.689,0-56.785c1.188,0,2.466,0,4.086,0c0,1.106,0,2.16,0,3.213c0,15.506-0.004,31.012,0.002,46.518
		c0.002,3.531,0.308,3.833,3.878,3.837C73.654,72.888,81.487,72.881,89.627,72.881z"/>
	<path fill-rule="evenodd" clip-rule="evenodd" d="M48.226,76.171c-1.389,0-2.606,0-3.988,0c0-19.027,0-37.923,0-56.951
		c1.383,0,2.6,0,3.988,0C48.226,38.18,48.226,57.007,48.226,76.171z"/>
	<path fill-rule="evenodd" clip-rule="evenodd" d="M89.617,60.696c0,1.223,0,2.098,0,3.107c-6.039,0-11.961,0-18.085,0
		c0-14.765,0-29.509,0-44.486c1.245,0,2.519,0,4.127,0c0,1.003,0,1.968,0,2.933c0,11.546-0.006,23.092,0.004,34.637
		c0.002,3.233,0.556,3.786,3.747,3.804C82.736,60.709,86.06,60.696,89.617,60.696z"/>
</g>
</svg>
