<?xml version="1.0" encoding="utf-8"?>
<!-- Generator: Adobe Illustrator 24.2.0, SVG Export Plug-In . SVG Version: 6.00 Build 0)  -->
<svg version="1.1" id="Layer_1" xmlns="http://www.w3.org/2000/svg" xmlns:xlink="http://www.w3.org/1999/xlink" x="0px" y="0px"
	 viewBox="0 0 1125 2436" style="enable-background:new 0 0 1125 2436;" xml:space="preserve">
<style type="text/css">
	.st0{fill:#FFF176;}
</style>
<path id="Path_27" class="st0" d="M-21.3,1507.8c196.8,46.9,244.7-88.8,355.5-64.8s108.9,301.3,168.8,225.5
	c59.9-75.8,352.7-185.5,419.5-90.7s249.7,68.9,249.7,68.9v172.7c0,0-263.8-207.7-320.7-185.7c-56.9,22-128,226.6-370.6,229.6
	s-191.8-250.7-273.6-245.6c-81.8,5.1-228.6-80.9-228.6-80.9L-21.3,1507.8z"/>
<path id="Path_26" class="st0" d="M-42.4,2033.9c110.8-86.9,262.6-124.6,324.6-33.8c62,90.7,117.8,190.5,160.8,96.7
	c43-93.7,110.7-176.7,156.6-122.8c46,53.9,74,302.6,149.9,289.6s384.7-193.6,384.7-193.6v257.6c0,0-294,36.7-393.7,11.8
	s-161.9-136.7-214.7-136.7c-52.9,0-112.6,20.1-156.6-18.9S246.1,2029.1,168.4,2070C90.7,2110.9-7.3,2339.4-7.3,2339.4L-42.4,2033.9z
	"/>
<path id="Path_24" class="st0" d="M1150.1,985.7C1007.4,1172.4,728.6,868,426,1132.4c-162.6,160.7-420.7,105.4-436.4,24.1
	c-16.9,100.8-7.9,232.6-7.9,232.6s77.9-134.6,138.8-85.8c60.9,48.8,162,138.7,224.8,49.9s389.4-234.6,440.3-156.8
	c50.9,77.9,348.7,13,348.7,13C1133.2,1209.4,1150.1,985.7,1150.1,985.7z"/>
<path id="Path_23" class="st0" d="M52.6,610.9c67.8-43,555.1,369.3,596,109.8c40.9-259.5,416.6-332.4,490.6-320.5s0,499.2,0,499.2
	s-383,37.8-911.8-103.9S52.6,610.9,52.6,610.9z"/>
<path id="Path_22" class="st0" d="M-54.3,337.5c70.4,41.1,205.5-179.9,239.7-236.3s197.8-225.6,239.3,124.9s63.2-91.2,262.7-129.4
	S995,135.9,1085,106s58.1,202.7,58.1,202.7S775,197.1,676.2,286.3S470.8,576.9,373,411.5S0.2,402.6,0.2,402.6L-54.3,337.5z"/>
</svg>
