<?xml version="1.0" standalone="no"?>
<!DOCTYPE svg PUBLIC "-//W3C//DTD SVG 20010904//EN"
 "http://www.w3.org/TR/2001/REC-SVG-20010904/DTD/svg10.dtd">
<svg version="1.0" xmlns="http://www.w3.org/2000/svg"
 width="700.000000pt" height="700.000000pt" viewBox="0 0 700.000000 700.000000"
 preserveAspectRatio="xMidYMid meet">
<metadata>
Created by potrace 1.11, written by Peter Selinger 2001-2013
</metadata>
<g transform="translate(0.000000,700.000000) scale(0.100000,-0.100000)"
fill="#000000" stroke="none">
<path d="M2869 5715 c0 -50 0 -3555 0 -3612 l1 -42 128 2 127 2 0 1845 0 1845
-127 0 -128 0 -1 -40z"/>
<path d="M1959 5748 c-1 -2 -2 -937 -4 -2078 -1 -1141 -5 -2088 -8 -2105 -3
-16 -9 -50 -12 -75 -47 -348 -246 -548 -625 -626 -47 -9 -93 -25 -104 -34 -18
-17 -18 -20 -1 -98 l18 -81 154 0 c87 1 178 7 209 14 30 7 56 12 57 12 1 0 32
10 68 22 108 36 219 112 292 201 121 147 204 403 224 695 4 55 7 1011 8 2125
l0 2025 -137 3 c-76 1 -139 1 -139 0z"/>
<path d="M3750 3910 l0 -1840 58 0 c62 -1 1982 0 1995 0 4 0 7 46 7 103 l0
104 -835 0 c-941 0 -905 -3 -941 71 -17 35 -18 121 -20 1712 -1 921 -2 1678
-3 1683 0 4 -59 7 -131 7 l-130 0 0 -1840z"/>
<path d="M4639 5748 c-1 -2 -2 -648 -3 -1436 -1 -946 2 -1436 9 -1441 6 -4
269 -7 585 -7 l575 1 0 100 0 100 -366 1 c-201 1 -384 5 -405 9 -58 10 -92 34
-110 79 -16 38 -18 142 -20 1311 -1 699 -2 1273 -3 1278 -1 6 -259 11 -262 5z"/>
</g>
</svg>
